<svg width="88" height="88" viewBox="0 0 88 88" fill="none" xmlns="http://www.w3.org/2000/svg">
<rect width="88" height="88" rx="24" fill="#1E293B"/>
<rect x="1.00342" y="1.00342" width="85.9932" height="85.9932" rx="24" fill="#0E1218"/>
<path d="M60.7424 38.145L44.4368 29.3651C44.2999 29.2916 44.1469 29.2531 43.9915 29.2531C43.8361 29.2531 43.6832 29.2916 43.5463 29.3651L27.2407 38.145C27.0908 38.2252 26.9654 38.3446 26.8779 38.4903C26.7903 38.6361 26.744 38.8028 26.7437 38.9729V49.0071C26.7437 49.1768 26.7896 49.3433 26.8765 49.489C26.9635 49.6348 27.0882 49.7543 27.2375 49.8349L43.5431 58.6148C43.68 58.6884 43.833 58.7269 43.9884 58.7269C44.1438 58.7269 44.2968 58.6884 44.4337 58.6148L60.7393 49.8349C60.8892 49.7547 61.0146 49.6354 61.1021 49.4896C61.1896 49.3438 61.236 49.1771 61.2363 49.0071V38.9729C61.2363 38.8032 61.1904 38.6366 61.1034 38.4909C61.0165 38.3452 60.8917 38.2256 60.7424 38.145ZM59.3549 47.4392L52.9627 43.99L59.3549 40.5407V47.4392ZM50.9779 42.9285L44.9307 39.6659V31.7608L58.3107 38.9729L50.9779 42.9285ZM43.99 46.6914L38.9854 43.99L43.99 41.2948L48.9945 43.99L43.99 46.6914ZM43.0493 31.7608V39.6596L37.0021 42.9207L29.6693 38.9729L43.0493 31.7608ZM28.6251 40.5407L35.0172 43.99L28.6251 47.4392V40.5407ZM37.0021 45.0498L43.0493 48.3141V56.2192L29.6693 49.0071L37.0021 45.0498ZM44.9307 56.2192V48.3141L50.9779 45.0577L58.3107 49.0071L44.9307 56.2192Z" fill="white"/>
</svg>
