<svg width="88" height="88" viewBox="0 0 88 88" fill="none" xmlns="http://www.w3.org/2000/svg">
<rect width="88" height="88" rx="24" fill="#1E293B"/>
<rect x="1.00342" y="1.00342" width="85.9931" height="85.9931" rx="24" fill="#0E1218"/>
<path opacity="0.2" d="M56.5327 57.787H49.0071L31.4472 30.1929H38.9729L56.5327 57.787Z" fill="white"/>
<path d="M57.591 57.1144L47.7763 41.6899L57.4609 31.0364C57.6799 30.7895 57.7928 30.4662 57.7751 30.1366C57.7573 29.8071 57.6104 29.4978 57.3662 29.2758C57.1219 29.0538 56.8 28.9371 56.4702 28.9508C56.1405 28.9646 55.8294 29.1078 55.6046 29.3494L46.3794 39.4965L40.0312 29.5203C39.918 29.3421 39.7616 29.1954 39.5766 29.0937C39.3916 28.992 39.184 28.9387 38.9729 28.9386H31.4472C31.2223 28.9385 31.0015 28.9989 30.808 29.1134C30.6144 29.2279 30.4552 29.3923 30.347 29.5895C30.2388 29.7866 30.1856 30.0092 30.193 30.234C30.2004 30.4588 30.268 30.6774 30.3889 30.8671L40.2036 46.29L30.519 56.9513C30.4059 57.0728 30.3181 57.2155 30.2606 57.3712C30.203 57.5269 30.177 57.6925 30.1839 57.8583C30.1908 58.0241 30.2306 58.1869 30.3009 58.3373C30.3712 58.4876 30.4707 58.6225 30.5935 58.7342C30.7164 58.8458 30.8601 58.9319 31.0165 58.9876C31.1729 59.0432 31.3387 59.0673 31.5045 59.0584C31.6702 59.0495 31.8325 59.0078 31.982 58.9356C32.1315 58.8635 32.2652 58.7625 32.3754 58.6383L41.6006 48.4912L47.9488 58.4674C48.0629 58.6441 48.2196 58.7893 48.4046 58.8896C48.5895 58.9899 48.7967 59.042 49.0071 59.0412H56.5327C56.7574 59.0412 56.9779 58.9808 57.1712 58.8663C57.3645 58.7519 57.5236 58.5877 57.6317 58.3908C57.7399 58.1939 57.7931 57.9715 57.786 57.747C57.7788 57.5225 57.7115 57.304 57.591 57.1144ZM49.6954 56.5327L33.7316 31.4472H38.2783L54.2484 56.5327H49.6954Z" fill="white"/>
</svg>
