<svg width="34" height="34" viewBox="0 0 34 34" fill="none" xmlns="http://www.w3.org/2000/svg">
<rect x="0.5" y="0.5" width="33" height="33" rx="16.5" fill="#020617"/>
<rect x="0.5" y="0.5" width="33" height="33" rx="16.5" stroke="#334155"/>
<path d="M17 7C11.452 7 7 11.452 7 17C7 22.548 11.452 27 17 27C22.548 27 27 22.548 27 17C27 11.452 22.548 7 17 7ZM21.58 21.42C21.4798 21.5478 21.3403 21.639 21.1831 21.6797C21.0258 21.7203 20.8596 21.7082 20.71 21.645C18.355 20.194 15.387 19.871 11.935 20.645C11.8567 20.6675 11.7745 20.6734 11.6937 20.6626C11.613 20.6517 11.5353 20.6242 11.4657 20.5818C11.3961 20.5395 11.336 20.4831 11.2892 20.4164C11.2425 20.3496 11.21 20.2739 11.194 20.194C11.097 19.839 11.323 19.516 11.645 19.419C15.452 18.549 18.677 18.935 21.387 20.549C21.677 20.774 21.774 21.129 21.581 21.419M22.808 18.741C22.582 19.096 22.066 19.192 21.775 18.967C19.098 17.322 15.001 16.837 11.807 17.837C11.388 17.967 10.937 17.741 10.84 17.289C10.71 16.87 10.936 16.419 11.388 16.322C15.033 15.192 19.518 15.773 22.614 17.644C22.904 17.87 23.034 18.322 22.808 18.741ZM22.904 15.87C19.678 13.967 14.356 13.773 11.259 14.74C10.807 14.87 10.259 14.612 10.13 14.096C10.001 13.644 10.26 13.096 10.775 12.966C14.324 11.934 20.13 12.096 23.872 14.322C24.324 14.58 24.452 15.192 24.227 15.58C23.969 15.999 23.356 16.128 22.904 15.87Z" fill="white"/>
</svg>
