<svg width="98" height="75" viewBox="0 0 98 75" fill="none" xmlns="http://www.w3.org/2000/svg">
<g filter="url(#filter0_dddd_1_28)">
<rect width="76.08" height="66.33" rx="16" transform="matrix(1.00916 0 -0.221069 0.984653 14.6635 0)" fill="#09090B" shape-rendering="crispEdges"/>
<rect x="0.394048" y="0.492326" width="75.08" height="65.33" rx="15.5" transform="matrix(1.00916 0 -0.221069 0.984653 14.7687 0.00755576)" stroke="#232B34" shape-rendering="crispEdges"/>
<path d="M34.9936 41.826L38.291 27.1391C38.7152 25.2497 39.2896 23.0568 41.0228 21.801C42.4429 20.7727 44.1245 20.7727 45.7169 20.7727H56.2414C57.72 20.7727 59.2476 20.798 60.4296 21.4329C60.5256 21.4844 60.6157 21.5383 60.7 21.5945C62.4149 22.7225 61.7508 25.4112 61.2515 27.635L57.9298 42.43C57.6015 43.8924 57.1949 45.3955 56.2739 46.7272C55.3918 48.0014 54.4486 48.5731 52.8849 48.8428M34.9936 41.826H47.7065C48.3011 41.826 48.7569 42.1814 48.8442 42.7222C48.9193 43.1956 48.9776 43.603 49.0254 43.9865C49.1883 45.3323 49.2783 46.7525 50.0214 47.8033C50.4684 48.4354 51.0141 48.7557 51.8181 48.8428M34.9936 41.826H30.6657C29.8695 41.826 29.0691 42.4539 28.9605 43.2266C28.8465 44.0357 28.8364 44.7409 28.9406 45.4953C29.1247 46.8298 29.6625 48.1798 30.9456 48.6209C31.419 48.7824 31.9714 48.8358 32.6969 48.8428H51.8181M52.8849 48.8428C52.5223 48.8751 52.1661 48.8751 51.8181 48.8428M52.8849 48.8428H51.8181M44.6136 27.7965H54.6918M43.352 33.4156H48.3911" stroke="white" stroke-width="2.14" stroke-linecap="round" stroke-linejoin="round"/>
</g>
<defs>
<filter id="filter0_dddd_1_28" x="0" y="0" width="101.129" height="75" filterUnits="userSpaceOnUse" color-interpolation-filters="sRGB">
<feFlood flood-opacity="0" result="BackgroundImageFix"/>
<feColorMatrix in="SourceAlpha" type="matrix" values="0 0 0 0 0 0 0 0 0 0 0 0 0 0 0 0 0 0 127 0" result="hardAlpha"/>
<feOffset dx="9.6" dy="9.6"/>
<feComposite in2="hardAlpha" operator="out"/>
<feColorMatrix type="matrix" values="0 0 0 0 0.137255 0 0 0 0 0.168627 0 0 0 0 0.203922 0 0 0 1 0"/>
<feBlend mode="normal" in2="BackgroundImageFix" result="effect1_dropShadow_1_28"/>
<feColorMatrix in="SourceAlpha" type="matrix" values="0 0 0 0 0 0 0 0 0 0 0 0 0 0 0 0 0 0 127 0" result="hardAlpha"/>
<feOffset dx="7.2" dy="7.2"/>
<feComposite in2="hardAlpha" operator="out"/>
<feColorMatrix type="matrix" values="0 0 0 0 0.137255 0 0 0 0 0.168627 0 0 0 0 0.203922 0 0 0 1 0"/>
<feBlend mode="normal" in2="effect1_dropShadow_1_28" result="effect2_dropShadow_1_28"/>
<feColorMatrix in="SourceAlpha" type="matrix" values="0 0 0 0 0 0 0 0 0 0 0 0 0 0 0 0 0 0 127 0" result="hardAlpha"/>
<feOffset dx="4.8" dy="4.8"/>
<feComposite in2="hardAlpha" operator="out"/>
<feColorMatrix type="matrix" values="0 0 0 0 0.137255 0 0 0 0 0.168627 0 0 0 0 0.203922 0 0 0 1 0"/>
<feBlend mode="normal" in2="effect2_dropShadow_1_28" result="effect3_dropShadow_1_28"/>
<feColorMatrix in="SourceAlpha" type="matrix" values="0 0 0 0 0 0 0 0 0 0 0 0 0 0 0 0 0 0 127 0" result="hardAlpha"/>
<feOffset dx="2.4" dy="2.4"/>
<feComposite in2="hardAlpha" operator="out"/>
<feColorMatrix type="matrix" values="0 0 0 0 0.137255 0 0 0 0 0.168627 0 0 0 0 0.203922 0 0 0 1 0"/>
<feBlend mode="normal" in2="effect3_dropShadow_1_28" result="effect4_dropShadow_1_28"/>
<feBlend mode="normal" in="SourceGraphic" in2="effect4_dropShadow_1_28" result="shape"/>
</filter>
</defs>
</svg>
