<svg width="247" height="20" viewBox="0 0 247 20" fill="none" xmlns="http://www.w3.org/2000/svg">
<g clip-path="url(#clip0_1_609)">
<path d="M8.33334 17.1398C5.47584 18.104 3.09501 17.1398 1.66667 14.1665" stroke="#E4E4E7" stroke-width="1.25" stroke-linecap="round" stroke-linejoin="round"/>
<path d="M8.33334 18.3331V15.6314C8.33334 15.1331 8.48667 14.6998 8.73334 14.3081C8.90334 14.0398 8.78667 13.6581 8.48084 13.5748C5.94501 12.8764 4.16667 11.7556 4.16667 8.03728C4.16667 7.07061 4.48334 6.16228 5.04 5.37061C5.17834 5.17395 5.24834 5.07561 5.265 4.98728C5.28167 4.89728 5.2525 4.78145 5.19417 4.54811C4.95834 3.60145 4.97417 2.59561 5.32751 1.68978C5.32751 1.68978 6.05834 1.45061 7.72251 2.48978C8.10251 2.72728 8.29251 2.84645 8.46001 2.87311C8.62751 2.89978 8.85084 2.84395 9.2975 2.73228C9.93615 2.57394 10.592 2.49584 11.25 2.49978C11.908 2.49697 12.5637 2.57534 13.2025 2.73311C13.6492 2.84478 13.8733 2.89978 14.0408 2.87395C14.2075 2.84728 14.3975 2.72811 14.7775 2.49061C16.4417 1.45145 17.1725 1.69061 17.1725 1.69061C17.5258 2.59645 17.5417 3.60228 17.3058 4.54895C17.2475 4.78228 17.2192 4.89895 17.2358 4.98728C17.2525 5.07561 17.3217 5.17478 17.46 5.37145C18.0167 6.16311 18.3333 7.07145 18.3333 8.03811C18.3333 11.7564 16.555 12.8773 14.0192 13.5739C13.7133 13.6581 13.5967 14.0398 13.7667 14.3073C14.0133 14.6989 14.1667 15.1323 14.1667 15.6314V18.3331" stroke="#E4E4E7" stroke-width="1.25" stroke-linecap="round" stroke-linejoin="round"/>
</g>
<g clip-path="url(#clip1_1_609)">
<path d="M42.2717 7.9165H41.5833C40.7975 7.9165 40.405 7.9165 40.1608 8.16067C39.9167 8.40484 39.9167 8.79734 39.9167 9.58317V16.6665C39.9167 17.4523 39.9167 17.8448 40.1608 18.089C40.405 18.3332 40.7975 18.3332 41.5833 18.3332H42C42.7858 18.3332 43.1783 18.3332 43.4225 18.089C43.6667 17.8448 43.6667 17.4523 43.6667 16.6665V13.7498C43.6667 12.369 44.1067 11.2498 45.4067 11.2498C46.0567 11.2498 46.5833 11.8098 46.5833 12.4998V16.2498C46.5833 17.0357 46.5833 17.4282 46.8275 17.6723C47.0717 17.9165 47.4642 17.9165 48.25 17.9165H48.6658C49.4508 17.9165 49.8442 17.9165 50.0883 17.6723C50.3317 17.4282 50.3325 17.0357 50.3325 16.2507L50.3333 11.6665C50.3333 9.59484 48.3633 7.9165 46.4142 7.9165C45.3042 7.9165 44.3142 8.45984 43.6667 9.31067C43.6667 8.78567 43.6667 8.52317 43.5525 8.32817C43.4803 8.20478 43.3776 8.10204 43.2542 8.02984C43.0592 7.91567 42.7967 7.91567 42.2717 7.91567M35.75 7.9165H35.3333C34.5475 7.9165 34.155 7.9165 33.9108 8.16067C33.6667 8.40484 33.6667 8.79734 33.6667 9.58317V16.6665C33.6667 17.4523 33.6667 17.8448 33.9108 18.089C34.155 18.3332 34.5475 18.3332 35.3333 18.3332H35.75C36.5358 18.3332 36.9283 18.3332 37.1725 18.089C37.4167 17.8448 37.4167 17.4523 37.4167 16.6665V9.58317C37.4167 8.79734 37.4167 8.40484 37.1725 8.16067C36.9283 7.9165 36.5358 7.9165 35.75 7.9165ZM37.4167 3.5415C37.4167 4.03878 37.2191 4.5157 36.8675 4.86733C36.5159 5.21896 36.039 5.4165 35.5417 5.4165C35.0444 5.4165 34.5675 5.21896 34.2158 4.86733C33.8642 4.5157 33.6667 4.03878 33.6667 3.5415C33.6667 3.04422 33.8642 2.56731 34.2158 2.21568C34.5675 1.86405 35.0444 1.6665 35.5417 1.6665C36.039 1.6665 36.5159 1.86405 36.8675 2.21568C37.2191 2.56731 37.4167 3.04422 37.4167 3.5415Z" stroke="#E4E4E7" stroke-width="1.25" stroke-linecap="round" stroke-linejoin="round"/>
</g>
<g clip-path="url(#clip2_1_609)">
<path d="M68.9792 14.1557V5.44317C68.9792 4.32234 69.0267 3.0215 69.8667 2.2765C70.555 1.6665 71.5283 1.6665 72.45 1.6665H78.5417C79.3975 1.6665 80.285 1.6815 81.0517 2.05817C81.1139 2.08873 81.1731 2.12067 81.2292 2.154C82.3683 2.82317 82.3333 4.41817 82.3333 5.73734V14.514C82.3333 15.3815 82.2933 16.2732 81.9333 17.0632C81.5883 17.819 81.1167 18.1582 80.2467 18.3182M68.9792 14.1557H76.3375C76.6817 14.1557 76.9917 14.3665 77.1125 14.6873C77.2175 14.9682 77.3042 15.2098 77.3817 15.4373C77.6508 16.2357 77.8875 17.0782 78.4542 17.7015C78.795 18.0765 79.1525 18.2665 79.6292 18.3182M68.9792 14.1557H66.4742C66.0133 14.1557 65.6317 14.5282 65.6692 14.9865C65.7083 15.4665 65.7942 15.8848 65.9525 16.3323C66.2325 17.124 66.7192 17.9248 67.5192 18.1865C67.8142 18.2823 68.1408 18.314 68.5617 18.3182H79.6292M80.2467 18.3182C80.041 18.3373 79.8348 18.3373 79.6292 18.3182M80.2467 18.3182H79.6292M72.7242 5.83317H78.5575M72.7242 9.1665H75.6408" stroke="#E4E4E7" stroke-width="1.25" stroke-linecap="round" stroke-linejoin="round"/>
</g>
<g clip-path="url(#clip3_1_609)">
<path d="M97.6667 5L103.428 8.26417C105.552 9.4675 106.448 9.4675 108.573 8.26417L114.333 5" stroke="#E4E4E7" stroke-width="1.25" stroke-linecap="round" stroke-linejoin="round"/>
<path d="M97.68 11.23C97.7342 13.7842 97.7617 15.0617 98.7042 16.0075C99.6467 16.9542 100.958 16.9867 103.583 17.0525C105.199 17.0942 106.801 17.0942 108.418 17.0525C111.042 16.9867 112.353 16.9542 113.296 16.0075C114.238 15.0617 114.266 13.7842 114.321 11.23C114.338 10.4083 114.338 9.59166 114.321 8.76999C114.266 6.21582 114.238 4.93832 113.296 3.99249C112.353 3.04582 111.042 3.01332 108.418 2.94749C106.806 2.90683 105.194 2.90683 103.583 2.94749C100.958 3.01332 99.6467 3.04582 98.7042 3.99249C97.7617 4.93832 97.7342 6.21582 97.6792 8.76999C97.6616 9.5899 97.6625 10.4101 97.68 11.23Z" stroke="#E4E4E7" stroke-width="1.25" stroke-linecap="round" stroke-linejoin="round"/>
</g>
<g clip-path="url(#clip4_1_609)">
<path opacity="0.2" d="M144.25 16.875H140.5L131.75 3.125H135.5L144.25 16.875Z" fill="#E4E4E7"/>
<path d="M144.777 16.5398L139.887 8.85391L144.713 3.54531C144.822 3.42228 144.878 3.2612 144.869 3.09697C144.86 2.93275 144.787 2.77862 144.665 2.66801C144.544 2.5574 144.383 2.49923 144.219 2.50609C144.055 2.51296 143.9 2.58431 143.788 2.70469L139.191 7.76094L136.027 2.78984C135.971 2.70106 135.893 2.62795 135.801 2.57728C135.709 2.52661 135.605 2.50003 135.5 2.5H131.75C131.638 2.49995 131.528 2.53002 131.431 2.58708C131.335 2.64413 131.256 2.72607 131.202 2.82431C131.148 2.92255 131.121 3.03348 131.125 3.14548C131.129 3.25749 131.162 3.36644 131.223 3.46094L136.113 11.1461L131.288 16.4586C131.231 16.5191 131.187 16.5902 131.159 16.6678C131.13 16.7454 131.117 16.8279 131.121 16.9105C131.124 16.9932 131.144 17.0743 131.179 17.1492C131.214 17.2241 131.263 17.2914 131.325 17.347C131.386 17.4026 131.457 17.4455 131.535 17.4733C131.613 17.501 131.696 17.513 131.779 17.5085C131.861 17.5041 131.942 17.4833 132.017 17.4474C132.091 17.4114 132.158 17.3611 132.213 17.2992L136.809 12.243L139.973 17.2141C140.03 17.3021 140.108 17.3745 140.2 17.4244C140.292 17.4744 140.395 17.5004 140.5 17.5H144.25C144.362 17.5 144.472 17.4699 144.568 17.4128C144.664 17.3558 144.744 17.274 144.798 17.1759C144.852 17.0778 144.878 16.967 144.874 16.8551C144.871 16.7432 144.837 16.6343 144.777 16.5398ZM140.843 16.25L132.888 3.75H135.154L143.112 16.25H140.843Z" fill="#E4E4E7"/>
</g>
<defs>
<clipPath id="clip0_1_609">
<rect width="20" height="20" rx="4" fill="white"/>
</clipPath>
<clipPath id="clip1_1_609">
<rect x="32" width="20" height="20" rx="4" fill="white"/>
</clipPath>
<clipPath id="clip2_1_609">
<rect x="64" width="20" height="20" rx="4" fill="white"/>
</clipPath>
<clipPath id="clip3_1_609">
<rect x="96" width="20" height="20" rx="4" fill="white"/>
</clipPath>
<clipPath id="clip4_1_609">
<rect x="128" width="20" height="20" rx="4" fill="white"/>
</clipPath>
</defs>
</svg>
