<svg width="542" height="104" viewBox="0 0 542 104" fill="none" xmlns="http://www.w3.org/2000/svg">
<g clip-path="url(#clip0_1_370)" filter="url(#filter0_dd_1_370)">
<rect width="502" height="64" transform="translate(20)" fill="white" fill-opacity="0.01"/>
<path d="M64.334 24.9739C62.5658 24.9739 60.87 24.2715 59.6197 23.0212C58.3694 21.7709 57.667 20.0751 57.667 18.3069C57.667 16.5387 58.3694 14.8429 59.6197 13.5926C60.87 12.3423 62.5658 11.6399 64.334 11.6399H71V24.9739M64.334 24.9739H71M64.334 24.9739C62.5661 24.9739 60.8705 25.6762 59.6204 26.9263C58.3703 28.1764 57.668 29.872 57.668 31.6399C57.668 33.4078 58.3703 35.1033 59.6204 36.3535C60.8705 37.6036 62.5661 38.3059 64.334 38.3059H71V24.9739" stroke="white" stroke-width="1.5"/>
<path d="M84.334 31.6399C84.334 33.4081 83.6316 35.1039 82.3813 36.3542C81.1309 37.6045 79.4352 38.3069 77.667 38.3069C75.8988 38.3069 74.203 37.6045 72.9527 36.3542C71.7024 35.1039 71 33.4081 71 31.6399C71 29.8717 71.7024 28.1759 72.9527 26.9256C74.203 25.6753 75.8988 24.9729 77.667 24.9729C79.4352 24.9729 81.1309 25.6753 82.3813 26.9256C83.6316 28.1759 84.334 29.8717 84.334 31.6399ZM64.334 38.3079H71V44.9739C70.9996 46.2922 70.6083 47.5808 69.8756 48.6768C69.1429 49.7727 68.1016 50.6268 66.8836 51.1311C65.6655 51.6353 64.3252 51.767 63.0323 51.5096C61.7393 51.2521 60.5517 50.6171 59.6197 49.6848C58.6876 48.7524 58.053 47.5647 57.7959 46.2716C57.5389 44.9786 57.671 43.6384 58.1756 42.4205C58.6802 41.2025 59.5346 40.1616 60.6307 39.4292C61.7269 38.6968 63.0156 38.3079 64.334 38.3079Z" stroke="white" stroke-width="1.5"/>
<path d="M71 11.6399H77.666C79.4342 11.6399 81.13 12.3423 82.3803 13.5926C83.6306 14.8429 84.333 16.5387 84.333 18.3069C84.333 20.0751 83.6306 21.7709 82.3803 23.0212C81.13 24.2715 79.4342 24.9739 77.666 24.9739H71V11.6399Z" stroke="white" stroke-width="1.5"/>
<path d="M170.738 33.9859C170.678 33.9859 170.618 34.0259 170.578 34.1259C170.176 35.2879 169.614 35.9899 169.154 35.9899C168.894 35.9899 168.794 35.6899 168.794 35.2499C168.794 34.1059 169.474 31.6799 169.814 30.5579C169.854 30.4179 169.874 30.2979 169.874 30.1979C169.874 29.8759 169.694 29.7139 169.254 29.7139C168.794 29.7139 168.272 29.8939 167.79 30.7579C167.63 29.9959 167.11 29.6739 166.386 29.6739C165.566 29.6739 164.762 30.2159 164.102 31.0779C163.44 31.9399 162.658 32.2219 162.076 32.0799C162.496 31.0599 162.656 30.2759 162.656 29.7139C162.656 28.8139 162.216 28.2719 161.496 28.2719C160.412 28.2719 159.79 29.3139 159.79 30.3959C159.79 31.2379 160.17 32.0999 161.014 32.5219C160.312 34.1059 159.29 35.5499 158.888 35.5499C158.388 35.5499 158.228 33.0839 158.268 31.3179C158.288 30.3179 158.368 30.2579 158.368 29.9559C158.368 29.7759 158.248 29.6559 157.786 29.6559C156.722 29.6559 156.382 30.5559 156.342 31.5999C156.322 31.9999 156.262 32.3799 156.162 32.7619C155.722 34.3459 154.798 35.5699 154.196 35.5699C153.916 35.5699 153.836 35.2899 153.836 34.9279C153.836 33.7839 154.476 32.3419 154.476 31.1179C154.476 30.2179 154.076 29.6539 153.336 29.6539C152.452 29.6539 151.31 30.6979 150.208 32.6419C150.568 31.1579 150.708 29.7159 149.646 29.7159C149.406 29.7159 149.185 29.7759 148.984 29.8959C148.916 29.9274 148.859 29.9785 148.819 30.0425C148.78 30.1066 148.761 30.1808 148.764 30.2559C148.864 31.8399 147.48 35.9099 146.178 35.9099C145.938 35.9099 145.818 35.6499 145.818 35.2299C145.818 34.0859 146.498 31.6599 146.838 30.5359C146.875 30.4126 146.896 30.2847 146.898 30.1559C146.898 29.8559 146.718 29.6959 146.278 29.6959C145.818 29.6959 145.296 29.8759 144.814 30.7359C144.634 29.9759 144.134 29.6559 143.41 29.6559C142.228 29.6559 140.924 30.8959 140.342 32.5219C139.562 34.6879 138.018 36.7919 135.912 36.7919C134.008 36.7919 133.004 35.2079 133.004 32.7019C133.004 29.0739 135.672 26.1259 137.636 26.1259C138.578 26.1259 139.02 26.7259 139.02 27.6499C139.02 28.7719 138.4 29.2739 138.4 29.7139C138.4 29.8339 138.5 29.9739 138.72 29.9739C139.58 29.9739 140.584 28.9739 140.584 27.5899C140.584 26.2059 139.5 25.2239 137.536 25.2239C134.268 25.2239 131 28.4919 131 32.7039C131 36.0499 132.644 38.0559 135.492 38.0559C137.436 38.0559 139.14 36.5519 140.042 34.7879C140.142 36.2519 140.804 37.0119 141.826 37.0119C142.728 37.0119 143.45 36.4719 144.012 35.5299C144.232 36.5099 144.792 36.9919 145.536 36.9919C146.376 36.9919 147.1 36.4519 147.76 35.4699C147.76 36.2499 147.92 36.9919 148.604 36.9919C148.924 36.9919 149.304 36.9119 149.364 36.6319C150.086 33.6839 151.852 31.2579 152.392 31.2579C152.552 31.2579 152.592 31.4179 152.592 31.5979C152.592 32.4019 152.032 34.0459 152.032 35.0879C152.032 36.2319 152.512 36.9719 153.516 36.9719C154.618 36.9719 155.74 35.6299 156.482 33.6439C156.722 35.4899 157.224 36.9719 158.006 36.9719C158.968 36.9719 160.712 34.9279 161.756 32.7619C162.156 32.8219 162.778 32.8019 163.38 32.3819C163.12 33.0219 162.98 33.7239 162.98 34.4059C162.98 36.4119 163.94 36.9719 164.762 36.9719C165.664 36.9719 166.386 36.4319 166.948 35.4899C167.128 36.3299 167.608 36.9519 168.472 36.9519C169.816 36.9519 170.998 35.5699 170.998 34.4259C171.018 34.1859 170.878 33.9859 170.738 33.9859ZM142.668 35.8899C142.128 35.8899 141.908 35.3499 141.908 34.5259C141.908 33.1039 142.888 30.7179 143.912 30.7179C144.352 30.7179 144.532 31.2379 144.532 31.8999C144.532 33.3439 143.612 35.8899 142.668 35.8899ZM161.374 31.6399C161.054 31.2599 160.934 30.7179 160.934 30.2559C160.934 29.6759 161.154 29.1939 161.394 29.1939C161.634 29.1939 161.734 29.4339 161.734 29.7939C161.714 30.3559 161.514 31.2179 161.374 31.6399ZM165.604 35.8899C165.064 35.8899 164.844 35.2499 164.844 34.5259C164.844 33.1439 165.824 30.7179 166.848 30.7179C167.288 30.7179 167.448 31.2379 167.448 31.8999C167.468 33.3439 166.568 35.8899 165.604 35.8899Z" fill="white"/>
<g clip-path="url(#clip1_1_370)">
<path d="M231 7.63989C224.635 7.63989 218.53 10.1685 214.029 14.6693C209.529 19.1702 207 25.2747 207 31.6399C207 38.0051 209.529 44.1096 214.029 48.6105C218.53 53.1113 224.635 55.6399 231 55.6399C237.365 55.6399 243.47 53.1113 247.971 48.6105C252.471 44.1096 255 38.0051 255 31.6399C255 25.2747 252.471 19.1702 247.971 14.6693C243.47 10.1685 237.365 7.63989 231 7.63989ZM232.024 14.8399C233.781 14.8613 235.527 15.1237 237.212 15.6199C240.74 16.6599 244.234 19.1139 244.858 22.9799C244.99 23.7999 244.988 24.6379 244.872 25.4599C244.456 28.3919 242.692 31.0139 240.692 33.1199C238.566 35.3639 235.858 36.8279 233.612 38.9159C232.298 40.1379 231.762 41.6359 233.348 42.9059C235.516 44.0119 237.32 43.4379 239.288 42.2419C240.452 41.5359 241.448 40.5959 242.31 39.5519C242.748 39.0239 243.154 38.4679 243.544 37.9019C243.872 37.4219 244.178 36.8679 244.618 36.4699C244.876 36.175 245.233 35.9849 245.622 35.9359C245.911 35.9066 246.202 35.9693 246.454 36.1151C246.705 36.2609 246.904 36.4824 247.022 36.7479C247.258 37.3079 247.048 38.0279 246.796 38.5479C245.492 41.2399 244.06 43.0479 243.062 44.1079C240.09 47.4139 235.444 49.5799 231.152 47.7999C228.684 46.7799 226.756 44.4839 226.412 41.8039C225.772 36.7999 231.588 33.9039 234.652 31.0679C236.526 29.3319 238.582 26.6619 237.624 23.9439C236.706 21.3399 233.648 20.2079 231.132 19.9439C228.652 19.6879 226.132 20.1999 223.884 21.2519C222.12 22.0759 220.634 23.3279 219.244 24.6739C218.784 25.1199 218.344 25.5939 217.868 26.0199C217.456 26.3879 216.962 26.7239 216.404 26.7999C215.57 26.9119 214.778 26.3039 214.884 25.4239C215.056 23.9999 216.068 22.7599 216.956 21.6999C217.505 21.0426 218.095 20.4239 218.724 19.8439C220.146 18.5346 221.763 17.455 223.518 16.6439C226.185 15.4204 229.09 14.8049 232.024 14.8419M227.584 25.3699C230.7 25.2599 231.424 27.4379 229.348 29.0559C225.822 31.7999 221.354 34.5459 220.9 38.9559C220.716 40.7299 221.604 43.5419 222.68 45.4359C222.76 45.5759 222.802 45.7419 222.796 45.9159C222.776 46.3779 222.416 46.7559 221.94 46.7339C221.616 46.7179 221.318 46.5539 221.04 46.3819C219.762 45.5919 218.564 44.6019 217.63 43.4199C217.091 42.7369 216.644 41.9866 216.3 41.1879C215.978 40.4233 215.76 39.6187 215.654 38.7959C215.55 37.9733 215.557 37.1405 215.676 36.3199C215.736 35.8999 215.821 35.4866 215.932 35.0799C217.278 30.0999 222.686 25.9519 226.928 25.4239C227.157 25.3959 227.376 25.3779 227.584 25.3699Z" fill="white"/>
</g>
<g clip-path="url(#clip2_1_370)">
<path d="M300.53 32.1028C300.477 33.8243 301.325 34.5936 301.347 35.0735C301.34 35.1725 301.302 35.264 301.25 35.3477C301.197 35.4315 301.122 35.5001 301.04 35.5458L300.08 36.2313C299.952 36.3227 299.81 36.3684 299.66 36.3761C299.63 36.3761 299.045 36.5132 298.122 34.4261C297.56 35.1421 296.847 35.7134 296.03 36.1018C295.212 36.4903 294.327 36.6884 293.427 36.6731C292.205 36.7417 288.897 35.9724 289.07 32.3923C288.95 29.4749 291.627 27.662 294.387 27.822C294.92 27.822 296.007 27.8524 297.912 28.3018V27.1136C298.115 25.095 296.81 23.5335 294.552 23.7696C294.372 23.7696 293.097 23.7315 291.117 24.539C290.562 24.7979 290.495 24.7522 290.307 24.7522C289.752 24.7522 289.977 23.1145 290.09 22.9089C290.48 22.4214 292.782 21.5073 295.032 21.5225C296.54 21.3854 298.04 21.8577 299.21 22.8403C299.682 23.3811 300.05 24.0134 300.275 24.6989C300.5 25.3845 300.59 26.1081 300.537 26.8317V32.1104L300.53 32.1028ZM294.05 34.5708C296.48 34.5327 297.515 33.0474 297.747 32.2475C297.935 31.4782 297.905 30.9983 297.905 30.1604C297.177 29.9852 296.135 29.7872 294.935 29.7872C293.795 29.7034 291.725 30.2138 291.807 32.2475C291.717 33.5272 292.64 34.6393 294.057 34.5708H294.05ZM306.867 36.3304C306.275 36.3837 306.005 35.9571 305.915 35.5382L302.18 22.9927C302.105 22.7794 302.06 22.5661 302.037 22.3376C302.022 22.2462 302.045 22.1548 302.097 22.0786C302.15 22.0024 302.232 21.9567 302.322 21.9415H303.987C304.647 21.8729 304.857 22.3985 304.932 22.7337L307.617 33.4587L310.107 22.7337C310.145 22.4899 310.325 21.8882 311.067 21.9567H312.357C312.522 21.9415 313.19 21.9186 313.31 22.7489L315.807 33.6034L318.575 22.7413C318.612 22.5737 318.777 21.8729 319.527 21.9491H321.005C321.072 21.9415 321.47 21.8882 321.402 22.6042C321.372 22.7413 321.657 21.7891 317.442 35.5458C317.36 35.9647 317.082 36.3913 316.49 36.338H315.087C314.27 36.4294 314.15 35.5991 314.135 35.5229L311.645 25.0798L309.185 35.5153C309.17 35.5991 309.057 36.4218 308.232 36.3304H306.86H306.867ZM327.38 36.7569C326.937 36.7569 324.837 36.7341 323.075 35.82C322.902 35.7438 322.752 35.622 322.647 35.4544C322.542 35.2868 322.49 35.104 322.49 34.9136V34.0985C322.49 33.4511 322.955 33.5729 323.15 33.6491C323.9 33.9614 324.387 34.1899 325.31 34.3804C328.062 34.9516 329.27 34.2052 329.562 34.0376C330.552 33.4434 330.627 32.08 329.96 31.3792C329.172 30.7089 328.797 30.686 325.977 29.7796C325.632 29.6806 322.7 28.7436 322.692 25.7882C322.647 23.6401 324.567 21.5073 327.905 21.5225C328.857 21.5225 331.385 21.8349 332.075 22.7108C332.18 22.8708 332.225 23.0612 332.217 23.244V24.0134C332.217 24.3485 332.097 24.5237 331.85 24.5237C331.272 24.4552 330.245 23.6706 328.16 23.7011C327.642 23.6706 325.167 23.7696 325.28 25.6054C325.25 27.0526 327.275 27.5934 327.507 27.6544C330.245 28.4923 331.152 28.6294 332.24 29.9091C333.522 31.6001 332.832 33.5882 332.562 34.129C331.13 36.9854 327.432 36.7493 327.365 36.7493L327.38 36.7569ZM330.395 44.7474C325.145 48.6854 317.517 50.7802 311.007 50.7802C302.225 50.8411 293.735 47.5581 287.21 41.5862C286.722 41.1368 287.15 40.5198 287.75 40.8626C294.987 45.0673 303.177 47.2763 311.517 47.2686C317.742 47.2382 323.9 45.9509 329.637 43.4981C330.522 43.1173 331.272 44.0923 330.395 44.7474ZM332.585 42.2108C331.91 41.3349 328.137 41.7995 326.45 42.0052C325.94 42.0661 325.857 41.6167 326.315 41.2815C329.322 39.1335 334.257 39.7505 334.82 40.4741C335.382 41.1977 334.662 46.2175 331.85 48.6169C331.415 48.9901 331.002 48.7921 331.197 48.3046C331.827 46.6821 333.252 43.0868 332.577 42.2108H332.585Z" fill="white"/>
</g>
<g clip-path="url(#clip3_1_370)">
<path d="M406.202 31.6399L406.397 41.0389L400.202 37.4374V50.8444L391.999 55.6414V7.64139L412.397 19.4389V30.0409L400.202 22.8454V28.2439L406.202 31.6399ZM369.601 19.4374L389.999 7.63989V55.6399L381.796 50.8429V22.8424L369.601 30.0379V19.4374Z" fill="white"/>
</g>
<path d="M477.262 21.6519L478.01 20.3519L477.262 19.9199L476.51 20.3519L477.262 21.6519ZM482.782 32.0659H484.282V31.1999L483.532 30.7679L482.782 32.0659ZM465.39 21.2739L464.64 19.9739C464.412 20.1056 464.222 20.2951 464.091 20.5233C463.959 20.7516 463.89 21.0104 463.89 21.2739H465.39ZM476.61 42.0019L477.36 43.3019C477.588 43.1702 477.778 42.9807 477.909 42.7524C478.041 42.5242 478.11 42.2654 478.11 42.0019H476.61ZM464.92 41.7339L464.17 43.0319C464.398 43.1635 464.657 43.2329 464.92 43.2329C465.183 43.2329 465.442 43.1635 465.67 43.0319L464.92 41.7339ZM459.22 31.4199H457.72C457.72 31.6832 457.789 31.9419 457.92 32.1701C458.051 32.3983 458.24 32.5879 458.468 32.7199L459.22 31.4199ZM471 25.2639L470.25 26.5639L475.86 29.8039L476.61 28.5039L477.36 27.2039L471.75 23.9639L471 25.2639ZM476.61 28.5039H475.11V34.9839H478.11V28.5039H476.61ZM476.61 34.9839L475.86 33.6839L470.25 36.9239L471 38.2239L471.75 39.5219L477.36 36.2819L476.61 34.9839ZM471 38.2239L471.75 36.9239L466.14 33.6839L465.39 34.9839L464.64 36.2839L470.25 39.5219L471 38.2239ZM465.39 34.9839H466.89V28.5039H463.89V34.9839H465.39ZM465.39 28.5039L466.14 29.8039L471.75 26.5639L471 25.2639L470.25 23.9639L464.64 27.2039L465.39 28.5039ZM460.286 17.8639L461.586 18.6159C462.587 16.8826 464.236 15.6178 466.169 15.0995C468.102 14.5812 470.162 14.8519 471.896 15.8519L472.646 14.5519L473.396 13.2519C470.973 11.8536 468.093 11.4751 465.391 12.1997C462.688 12.9244 460.385 14.6927 458.986 17.1159L460.286 17.8639ZM472.646 14.5519L471.896 15.8519C472.484 16.1932 473.008 16.5952 473.468 17.0579L474.528 15.9979L475.588 14.9379C474.934 14.2833 474.197 13.7151 473.396 13.2519L472.646 14.5519ZM474.528 15.9979L475.032 17.4099C475.848 17.1203 476.707 16.9722 477.572 16.9719V13.9719C476.33 13.9719 475.134 14.1879 474.024 14.5859L474.528 15.9979ZM477.572 15.4719V16.9719C479.574 16.9719 481.495 17.7673 482.911 19.1832C484.327 20.5991 485.122 22.5195 485.122 24.5219H488.122C488.122 21.7239 487.011 19.0404 485.032 17.0619C483.054 15.0834 480.37 13.9719 477.572 13.9719V15.4719ZM486.622 24.5219H485.122C485.119 25.2032 485.033 25.8586 484.862 26.4879L486.31 26.8759L487.758 27.2659C487.999 26.3711 488.121 25.4485 488.122 24.5219H486.622ZM486.31 26.8759L485.338 28.0199C485.98 28.5639 486.542 29.2259 486.988 29.9999L488.286 29.2479L489.586 28.4979C488.981 27.452 488.202 26.5172 487.282 25.7339L486.31 26.8759ZM488.286 29.2479L486.986 29.9979C487.482 30.8565 487.804 31.8043 487.933 32.7873C488.063 33.7703 487.998 34.7692 487.741 35.7269C487.485 36.6847 487.042 37.5825 486.439 38.3692C485.835 39.1559 485.083 39.816 484.224 40.3119L484.974 41.6119L485.724 42.9119C486.924 42.219 487.976 41.2966 488.819 40.1972C489.663 39.0978 490.281 37.843 490.64 36.5045C490.998 35.166 491.09 33.7699 490.908 32.3962C490.727 31.0224 490.279 29.6977 489.586 28.4979L488.286 29.2479ZM484.974 41.6119L484.224 40.3119C483.638 40.6519 483.024 40.8979 482.392 41.0659L482.78 42.5159L483.168 43.9659C484.038 43.7319 484.9 43.3859 485.722 42.9099L484.974 41.6119ZM482.78 42.5159L481.304 42.2459C481.148 43.0972 480.848 43.9157 480.416 44.6659L481.714 45.4139L483.014 46.1639C483.634 45.0879 484.044 43.9439 484.254 42.7839L482.78 42.5159ZM481.714 45.4159L480.414 44.6639C479.413 46.3971 477.765 47.6619 475.831 48.1802C473.898 48.6986 471.838 48.4279 470.104 47.4279L469.354 48.7279L468.604 50.0279C471.027 51.4262 473.907 51.8047 476.609 51.0801C479.312 50.3554 481.615 48.587 483.014 46.1639L481.714 45.4159ZM469.354 48.7279L470.104 47.4279C469.529 47.0957 469 46.6896 468.53 46.2199L467.47 47.2799L466.406 48.3399C467.046 48.9799 467.782 49.5539 468.604 50.0279L469.354 48.7279ZM467.47 47.2799L466.964 45.8679C466.15 46.1577 465.292 46.3065 464.428 46.3079V49.3079C465.636 49.306 466.834 49.0976 467.972 48.6919L467.47 47.2799ZM464.428 47.8079V46.3079C462.426 46.3079 460.505 45.5125 459.089 44.0965C457.673 42.6807 456.878 40.7603 456.878 38.7579H453.878C453.878 41.5559 454.99 44.2394 456.968 46.2179C458.947 48.1964 461.63 49.3079 464.428 49.3079V47.8079ZM455.38 38.7579H456.878C456.879 38.0752 456.968 37.4199 457.14 36.7919L455.69 36.4039L454.242 36.0139C454.003 36.9089 453.88 37.8314 453.88 38.7579H455.38ZM455.69 36.4039L456.662 35.2599C456.022 34.7159 455.462 34.0539 455.016 33.2799L453.716 34.0319L452.416 34.7819C453.036 35.8559 453.822 36.7819 454.718 37.5459L455.69 36.4039ZM453.716 34.0319L455.016 33.2819C454.52 32.4236 454.198 31.476 454.068 30.4932C453.939 29.5105 454.004 28.5118 454.26 27.5542C454.517 26.5967 454.959 25.699 455.562 24.9124C456.165 24.1258 456.918 23.4657 457.776 22.9699L457.028 21.6719L456.278 20.3699C455.078 21.0626 454.026 21.9848 453.183 23.0841C452.339 24.1833 451.721 25.4379 451.362 26.7762C451.004 28.1146 450.913 29.5105 451.094 30.8841C451.275 32.2577 451.725 33.5822 452.418 34.7819L453.716 34.0319ZM457.028 21.6719L457.776 22.9699C458.35 22.6378 458.967 22.3823 459.608 22.2099L459.22 20.7619L458.832 19.3119C457.938 19.5522 457.079 19.9086 456.278 20.3719L457.028 21.6719ZM459.22 20.7619L460.696 21.0319C460.846 20.2059 461.14 19.3899 461.586 18.6159L460.288 17.8659L458.986 17.1159C458.382 18.1621 457.963 19.3039 457.744 20.4919L459.22 20.7619ZM471 25.2639L471.75 26.5639L474.88 24.7579L478.01 22.9499L477.258 21.6499L476.51 20.3519L473.38 22.1579L470.25 23.9659L471 25.2639ZM476.61 28.5039L475.86 29.8039L482.03 33.3639L482.78 32.0659L483.53 30.7659L477.36 27.2059L476.61 28.5039ZM482.78 42.5159H484.28V32.0659H481.28V42.5159H482.78ZM465.39 28.5039H466.89V21.2739H463.89V28.5039H465.39ZM476.61 34.9839H475.11V42.0019H478.11V34.9819L476.61 34.9839ZM471 38.2239L470.25 36.9239L464.17 40.4339L464.92 41.7339L465.67 43.0319L471.75 39.5219L471 38.2239ZM459.22 20.7619L457.72 20.7599V31.4199H460.72V20.7599L459.22 20.7619ZM465.39 34.9799L466.14 33.6819L459.968 30.1199L459.22 31.4199L458.468 32.7179L464.64 36.2799L465.39 34.9799ZM477.26 21.6499L476.508 22.9499L485.56 28.1739L486.31 26.8739L487.06 25.5739L478.008 20.3499L477.26 21.6499ZM465.39 21.2739L466.14 22.5719L475.28 17.2939L474.528 15.9939L473.778 14.6959L464.64 19.9739L465.39 21.2739ZM467.47 47.2799L468.218 48.5779L477.36 43.2979L476.61 41.9979L475.86 40.6999L466.72 45.9799L467.47 47.2799ZM455.69 36.4019L454.938 37.7019L464.17 43.0319L464.92 41.7299L465.67 40.4319L456.438 35.1019L455.69 36.4019Z" fill="white"/>
<rect x="20" width="167.33" height="64" fill="url(#paint0_linear_1_370)"/>
<rect x="354.67" width="167.33" height="64" fill="url(#paint1_linear_1_370)"/>
</g>
<defs>
<filter id="filter0_dd_1_370" x="0" y="0" width="542" height="104" filterUnits="userSpaceOnUse" color-interpolation-filters="sRGB">
<feFlood flood-opacity="0" result="BackgroundImageFix"/>
<feColorMatrix in="SourceAlpha" type="matrix" values="0 0 0 0 0 0 0 0 0 0 0 0 0 0 0 0 0 0 127 0" result="hardAlpha"/>
<feMorphology radius="6" operator="erode" in="SourceAlpha" result="effect1_dropShadow_1_370"/>
<feOffset dy="8"/>
<feGaussianBlur stdDeviation="5"/>
<feComposite in2="hardAlpha" operator="out"/>
<feColorMatrix type="matrix" values="0 0 0 0 0 0 0 0 0 0 0 0 0 0 0 0 0 0 0.1 0"/>
<feBlend mode="normal" in2="BackgroundImageFix" result="effect1_dropShadow_1_370"/>
<feColorMatrix in="SourceAlpha" type="matrix" values="0 0 0 0 0 0 0 0 0 0 0 0 0 0 0 0 0 0 127 0" result="hardAlpha"/>
<feMorphology radius="5" operator="erode" in="SourceAlpha" result="effect2_dropShadow_1_370"/>
<feOffset dy="20"/>
<feGaussianBlur stdDeviation="12.5"/>
<feComposite in2="hardAlpha" operator="out"/>
<feColorMatrix type="matrix" values="0 0 0 0 0 0 0 0 0 0 0 0 0 0 0 0 0 0 0.1 0"/>
<feBlend mode="normal" in2="effect1_dropShadow_1_370" result="effect2_dropShadow_1_370"/>
<feBlend mode="normal" in="SourceGraphic" in2="effect2_dropShadow_1_370" result="shape"/>
</filter>
<linearGradient id="paint0_linear_1_370" x1="20" y1="32" x2="187.33" y2="32" gradientUnits="userSpaceOnUse">
<stop stop-color="#0E1218"/>
<stop offset="1" stop-color="#0E1218" stop-opacity="0"/>
</linearGradient>
<linearGradient id="paint1_linear_1_370" x1="522" y1="32" x2="354.67" y2="32" gradientUnits="userSpaceOnUse">
<stop stop-color="#0E1218"/>
<stop offset="1" stop-color="#0E1218" stop-opacity="0"/>
</linearGradient>
<clipPath id="clip0_1_370">
<rect width="502" height="64" fill="white" transform="translate(20)"/>
</clipPath>
<clipPath id="clip1_1_370">
<rect width="48" height="48" fill="white" transform="translate(207 7.63989)"/>
</clipPath>
<clipPath id="clip2_1_370">
<rect width="48" height="39" fill="white" transform="translate(287 16.6399)"/>
</clipPath>
<clipPath id="clip3_1_370">
<rect width="48" height="48" fill="white" transform="translate(367 7.63989)"/>
</clipPath>
</defs>
</svg>
