<svg width="16" height="16" viewBox="0 0 16 16" fill="none" xmlns="http://www.w3.org/2000/svg">
<path d="M13.8669 5.1975C14.5607 6.64863 14.6925 8.30533 14.2366 9.84786C13.7808 11.3904 12.7698 12.7094 11.3986 13.5503C10.0275 14.3912 8.39345 14.6944 6.81189 14.4014C5.23034 14.1084 3.81338 13.24 2.83448 11.9637C1.85559 10.6874 1.38416 9.09372 1.51117 7.49027C1.63819 5.88683 2.35465 4.38727 3.52228 3.28101C4.6899 2.17474 6.22592 1.5402 7.83389 1.49985C9.44185 1.4595 11.0078 2.0162 12.2294 3.0625L13.6463 1.645C13.7401 1.55118 13.8674 1.49848 14 1.49848C14.1327 1.49848 14.26 1.55118 14.3538 1.645C14.4476 1.73882 14.5003 1.86607 14.5003 1.99875C14.5003 2.13144 14.4476 2.25868 14.3538 2.3525L8.35378 8.3525C8.25996 8.44633 8.13271 8.49903 8.00003 8.49903C7.86735 8.49903 7.7401 8.44633 7.64628 8.3525C7.55246 8.25868 7.49975 8.13144 7.49975 7.99875C7.49975 7.86607 7.55246 7.73882 7.64628 7.645L9.37878 5.9125C8.90925 5.60198 8.34866 5.459 7.78776 5.50672C7.22686 5.55444 6.69849 5.79007 6.28817 6.17546C5.87784 6.56084 5.6096 7.07343 5.52685 7.63024C5.44411 8.18705 5.55171 8.7555 5.83223 9.24355C6.11275 9.7316 6.54978 10.1107 7.07256 10.3194C7.59535 10.5282 8.17329 10.5544 8.71283 10.3939C9.25237 10.2333 9.72192 9.89531 10.0455 9.43466C10.369 8.97401 10.5277 8.41765 10.4957 7.85563C10.492 7.78997 10.5012 7.72422 10.523 7.66215C10.5447 7.60007 10.5784 7.54288 10.6222 7.49384C10.666 7.4448 10.7191 7.40487 10.7783 7.37633C10.8376 7.34779 10.9019 7.3312 10.9675 7.3275C11.1001 7.32005 11.2303 7.36557 11.3293 7.45406C11.3784 7.49788 11.4183 7.55093 11.4468 7.61018C11.4754 7.66943 11.492 7.73372 11.4957 7.79938C11.5412 8.59487 11.314 9.3821 10.8516 10.031C10.3891 10.6798 9.71914 11.1515 8.95232 11.368C8.1855 11.5844 7.36777 11.5328 6.63428 11.2216C5.90078 10.9103 5.29544 10.3581 4.91829 9.65627C4.54115 8.95439 4.41478 8.14483 4.56007 7.36139C4.70536 6.57796 5.11362 5.86755 5.71737 5.34758C6.32111 4.82762 7.08421 4.52921 7.88052 4.5017C8.67684 4.47418 9.45871 4.7192 10.0969 5.19625L11.5188 3.77438C10.4768 2.90925 9.15189 2.45961 7.79857 2.5118C6.44524 2.564 5.15892 3.11436 4.18665 4.05717C3.21438 4.99999 2.62472 6.26878 2.53093 7.61985C2.43714 8.97093 2.84583 10.309 3.67851 11.3771C4.51118 12.4453 5.70912 13.1681 7.04225 13.4067C8.37538 13.6454 9.7497 13.3832 10.9012 12.6703C12.0528 11.9575 12.9003 10.8443 13.2812 9.54459C13.662 8.2449 13.5492 6.85034 12.9644 5.62875C12.9072 5.50908 12.8999 5.37158 12.9441 5.24652C12.9883 5.12145 13.0804 5.01907 13.2 4.96188C13.3197 4.90469 13.4572 4.89739 13.5823 4.94158C13.7073 4.98577 13.8097 5.07783 13.8669 5.1975Z" fill="#64748B"/>
</svg>
