<svg width="88" height="88" viewBox="0 0 88 88" fill="none" xmlns="http://www.w3.org/2000/svg">
<rect width="88" height="88" rx="24" fill="#1E293B"/>
<rect x="1.00342" y="1.00342" width="85.9931" height="85.9931" rx="24" fill="#0E1218"/>
<path d="M53.4776 38.9728C54.5618 38.2785 55.3919 37.2516 55.8436 36.046C56.2953 34.8403 56.3443 33.5208 55.9833 32.285C55.6222 31.0492 54.8706 29.9636 53.8409 29.1907C52.8112 28.4179 51.5588 27.9994 50.2714 27.9979H38.9829C37.6954 27.9994 36.4431 28.4179 35.4134 29.1907C34.3837 29.9636 33.632 31.0492 33.271 32.285C32.91 33.5208 32.959 34.8403 33.4107 36.046C33.8624 37.2516 34.6925 38.2785 35.7767 38.9728C34.9159 39.5239 34.2113 40.2871 33.7308 41.1892C33.2502 42.0912 33.0098 43.1017 33.0326 44.1236C33.0555 45.1454 33.3408 46.1441 33.8612 47.0238C34.3815 47.9035 35.1195 48.6345 36.004 49.1466C35.0497 49.7711 34.274 50.6328 33.7528 51.6473C33.2316 52.6618 32.9829 53.7942 33.0309 54.9337C33.079 56.0732 33.4221 57.1807 34.0268 58.1477C34.6315 59.1147 35.477 59.9081 36.4805 60.4501C37.484 60.9922 38.611 61.2643 39.7513 61.2398C40.8915 61.2153 42.0059 60.8951 42.9852 60.3106C43.9645 59.726 44.7752 58.8971 45.3378 57.905C45.9005 56.913 46.1959 55.7918 46.195 54.6513V48.3297C46.7978 48.9034 47.5141 49.3444 48.2978 49.6244C49.0815 49.9043 49.9151 50.017 50.745 49.9551C51.5748 49.8933 52.3825 49.6583 53.116 49.2652C53.8495 48.8722 54.4926 48.3298 55.0037 47.6731C55.5148 47.0164 55.8827 46.2599 56.0836 45.4524C56.2846 44.6448 56.3141 43.8042 56.1703 42.9845C56.0266 42.1649 55.7127 41.3844 55.2489 40.6935C54.7851 40.0025 54.1817 39.4164 53.4776 38.9728ZM54.3478 33.9557C54.3478 35.0368 53.9183 36.0737 53.1538 36.8382C52.3894 37.6026 51.3525 38.0321 50.2714 38.0321H46.195V29.8793H50.2714C51.3525 29.8793 52.3894 30.3088 53.1538 31.0733C53.9183 31.8377 54.3478 32.8746 54.3478 33.9557ZM34.9065 33.9557C34.9065 32.8746 35.336 31.8377 36.1004 31.0733C36.8649 30.3088 37.9018 29.8793 38.9829 29.8793H44.3136V38.0321H38.9829C37.9018 38.0321 36.8649 37.6026 36.1004 36.8382C35.336 36.0737 34.9065 35.0368 34.9065 33.9557ZM38.9829 48.0663C37.9018 48.0663 36.8649 47.6368 36.1004 46.8724C35.336 46.1079 34.9065 45.0711 34.9065 43.9899C34.9065 42.9088 35.336 41.872 36.1004 41.1075C36.8649 40.343 37.9018 39.9135 38.9829 39.9135H44.3136V48.0663H38.9829ZM44.3136 54.6513C44.3136 55.5815 44.0377 56.4909 43.5209 57.2644C43.004 58.0379 42.2695 58.6408 41.41 58.9968C40.5505 59.3528 39.6048 59.4459 38.6924 59.2644C37.78 59.0829 36.9419 58.635 36.2841 57.9772C35.6263 57.3194 35.1784 56.4813 34.9969 55.5689C34.8154 54.6565 34.9085 53.7108 35.2645 52.8513C35.6205 51.9918 36.2234 51.2573 36.9969 50.7404C37.7704 50.2236 38.6798 49.9477 39.61 49.9477H44.3136V54.6513ZM50.2714 48.0663C49.4651 48.0663 48.677 47.8272 48.0067 47.3793C47.3363 46.9314 46.8138 46.2948 46.5053 45.5499C46.1967 44.805 46.116 43.9854 46.2733 43.1947C46.4306 42.4039 46.8188 41.6776 47.3889 41.1075C47.959 40.5374 48.6854 40.1491 49.4761 39.9919C50.2669 39.8346 51.0865 39.9153 51.8313 40.2238C52.5762 40.5324 53.2129 41.0548 53.6608 41.7252C54.1087 42.3956 54.3478 43.1837 54.3478 43.9899C54.3478 45.0711 53.9183 46.1079 53.1538 46.8724C52.3894 47.6368 51.3525 48.0663 50.2714 48.0663Z" fill="white"/>
</svg>
