<svg width="98" height="75" viewBox="0 0 98 75" fill="none" xmlns="http://www.w3.org/2000/svg">
<g filter="url(#filter0_dddd_1_31)">
<rect width="76.08" height="66.33" rx="16" transform="matrix(1.00916 0 -0.221069 0.984653 14.6635 0)" fill="#09090B" shape-rendering="crispEdges"/>
<rect x="0.394048" y="0.492326" width="75.08" height="65.33" rx="15.5" transform="matrix(1.00916 0 -0.221069 0.984653 14.7687 0.00755576)" stroke="#232B34" shape-rendering="crispEdges"/>
<path d="M32.7358 26.3918L41.4533 31.8943C44.6678 33.9227 46.2169 33.9227 50.3423 31.8943L61.5306 26.3918" stroke="white" stroke-width="2.14" stroke-linecap="round" stroke-linejoin="round"/>
<path d="M30.4009 36.8938C29.5279 41.1994 29.0919 43.353 30.3623 44.9474C31.6323 46.5432 33.8862 46.598 38.395 46.709C41.1723 46.7792 43.9395 46.7792 46.7484 46.709C51.307 46.598 53.5855 46.5432 55.5721 44.9474C57.5584 43.353 58.0894 41.1994 59.1511 36.8938C59.4909 35.5087 59.8 34.132 60.0822 32.7469C60.9538 28.4413 61.3898 26.2878 60.1194 24.6934C58.8494 23.0976 56.5955 23.0428 52.0867 22.9318C49.3181 22.8633 46.5327 22.8633 43.7333 22.9318C39.1747 23.0428 36.8962 23.0976 34.9096 24.6934C32.9232 26.2878 32.3922 28.4413 31.3305 32.7469C30.9899 34.1291 30.681 35.5117 30.4009 36.8938Z" stroke="white" stroke-width="2.14" stroke-linecap="round" stroke-linejoin="round"/>
</g>
<defs>
<filter id="filter0_dddd_1_31" x="0" y="0" width="101.129" height="75" filterUnits="userSpaceOnUse" color-interpolation-filters="sRGB">
<feFlood flood-opacity="0" result="BackgroundImageFix"/>
<feColorMatrix in="SourceAlpha" type="matrix" values="0 0 0 0 0 0 0 0 0 0 0 0 0 0 0 0 0 0 127 0" result="hardAlpha"/>
<feOffset dx="9.6" dy="9.6"/>
<feComposite in2="hardAlpha" operator="out"/>
<feColorMatrix type="matrix" values="0 0 0 0 0.137255 0 0 0 0 0.168627 0 0 0 0 0.203922 0 0 0 1 0"/>
<feBlend mode="normal" in2="BackgroundImageFix" result="effect1_dropShadow_1_31"/>
<feColorMatrix in="SourceAlpha" type="matrix" values="0 0 0 0 0 0 0 0 0 0 0 0 0 0 0 0 0 0 127 0" result="hardAlpha"/>
<feOffset dx="7.2" dy="7.2"/>
<feComposite in2="hardAlpha" operator="out"/>
<feColorMatrix type="matrix" values="0 0 0 0 0.137255 0 0 0 0 0.168627 0 0 0 0 0.203922 0 0 0 1 0"/>
<feBlend mode="normal" in2="effect1_dropShadow_1_31" result="effect2_dropShadow_1_31"/>
<feColorMatrix in="SourceAlpha" type="matrix" values="0 0 0 0 0 0 0 0 0 0 0 0 0 0 0 0 0 0 127 0" result="hardAlpha"/>
<feOffset dx="4.8" dy="4.8"/>
<feComposite in2="hardAlpha" operator="out"/>
<feColorMatrix type="matrix" values="0 0 0 0 0.137255 0 0 0 0 0.168627 0 0 0 0 0.203922 0 0 0 1 0"/>
<feBlend mode="normal" in2="effect2_dropShadow_1_31" result="effect3_dropShadow_1_31"/>
<feColorMatrix in="SourceAlpha" type="matrix" values="0 0 0 0 0 0 0 0 0 0 0 0 0 0 0 0 0 0 127 0" result="hardAlpha"/>
<feOffset dx="2.4" dy="2.4"/>
<feComposite in2="hardAlpha" operator="out"/>
<feColorMatrix type="matrix" values="0 0 0 0 0.137255 0 0 0 0 0.168627 0 0 0 0 0.203922 0 0 0 1 0"/>
<feBlend mode="normal" in2="effect3_dropShadow_1_31" result="effect4_dropShadow_1_31"/>
<feBlend mode="normal" in="SourceGraphic" in2="effect4_dropShadow_1_31" result="shape"/>
</filter>
</defs>
</svg>
