<svg width="16" height="16" viewBox="0 0 16 16" fill="none" xmlns="http://www.w3.org/2000/svg">
<path d="M13.75 10.5681L8.00001 13.9213L2.25001 10.5681C2.13617 10.5114 2.005 10.5003 1.8832 10.5369C1.76141 10.5735 1.65815 10.6552 1.59443 10.7652C1.53072 10.8753 1.51134 11.0055 1.54025 11.1294C1.56915 11.2532 1.64416 11.3614 1.75001 11.4319L7.75001 14.9319C7.82647 14.9765 7.91339 15 8.00189 15C8.09039 15 8.17731 14.9765 8.25376 14.9319L14.2538 11.4319C14.3114 11.3993 14.362 11.3556 14.4026 11.3032C14.4432 11.2509 14.473 11.1911 14.4902 11.1272C14.5075 11.0632 14.5119 10.9965 14.5032 10.9309C14.4945 10.8653 14.4728 10.802 14.4395 10.7448C14.4061 10.6876 14.3617 10.6376 14.3089 10.5977C14.256 10.5578 14.1958 10.5288 14.1317 10.5124C14.0675 10.4959 14.0008 10.4924 13.9352 10.502C13.8697 10.5115 13.8068 10.534 13.75 10.5681Z" fill="white"/>
<path d="M13.75 7.56813L8.00001 10.9213L2.25001 7.56813C2.13617 7.51145 2.005 7.50028 1.8832 7.53689C1.76141 7.57351 1.65815 7.65516 1.59443 7.76523C1.53072 7.8753 1.51134 8.00551 1.54025 8.12936C1.56915 8.25321 1.64416 8.36139 1.75001 8.43188L7.75001 11.9319C7.82647 11.9765 7.91339 12 8.00189 12C8.09039 12 8.17731 11.9765 8.25376 11.9319L14.2538 8.43188C14.3114 8.39928 14.362 8.35555 14.4026 8.30324C14.4432 8.25093 14.473 8.19108 14.4902 8.12716C14.5075 8.06324 14.5119 7.99653 14.5032 7.93089C14.4945 7.86526 14.4728 7.802 14.4395 7.74481C14.4061 7.68761 14.3617 7.63761 14.3089 7.59771C14.256 7.5578 14.1958 7.52879 14.1317 7.51235C14.0675 7.49592 14.0008 7.49238 13.9352 7.50196C13.8697 7.51153 13.8068 7.53403 13.75 7.56813Z" fill="white"/>
<path d="M1.74999 5.43183L7.74999 8.93183C7.82645 8.97641 7.91336 8.9999 8.00187 8.9999C8.09037 8.9999 8.17729 8.97641 8.25374 8.93183L14.2537 5.43183C14.3292 5.38779 14.3918 5.32474 14.4354 5.24897C14.4789 5.17319 14.5018 5.08733 14.5018 4.99995C14.5018 4.91257 14.4789 4.82671 14.4354 4.75093C14.3918 4.67516 14.3292 4.61211 14.2537 4.56808L8.25374 1.06808C8.17729 1.02349 8.09037 1 8.00187 1C7.91336 1 7.82645 1.02349 7.74999 1.06808L1.74999 4.56808C1.67451 4.61211 1.6119 4.67516 1.56837 4.75093C1.52485 4.82671 1.50195 4.91257 1.50195 4.99995C1.50195 5.08733 1.52485 5.17319 1.56837 5.24897C1.6119 5.32474 1.67451 5.38779 1.74999 5.43183Z" fill="white"/>
</svg>
