<svg width="16" height="16" viewBox="0 0 16 16" fill="none" xmlns="http://www.w3.org/2000/svg">
<path d="M15.4469 13.2762L11.9469 6.27625C11.9053 6.19321 11.8415 6.12338 11.7625 6.07457C11.6835 6.02576 11.5925 5.99991 11.4997 5.99991C11.4068 5.99991 11.3158 6.02576 11.2368 6.07457C11.1579 6.12338 11.094 6.19321 11.0525 6.27625L9.69563 8.99063C8.63206 8.93082 7.60875 8.56344 6.75 7.93313C7.75755 6.85716 8.36803 5.46976 8.48063 4H10C10.1326 4 10.2598 3.94732 10.3536 3.85355C10.4473 3.75979 10.5 3.63261 10.5 3.5C10.5 3.36739 10.4473 3.24021 10.3536 3.14645C10.2598 3.05268 10.1326 3 10 3H6.5V2C6.5 1.86739 6.44732 1.74021 6.35355 1.64645C6.25979 1.55268 6.13261 1.5 6 1.5C5.86739 1.5 5.74021 1.55268 5.64645 1.64645C5.55268 1.74021 5.5 1.86739 5.5 2V3H2C1.86739 3 1.74021 3.05268 1.64645 3.14645C1.55268 3.24021 1.5 3.36739 1.5 3.5C1.5 3.63261 1.55268 3.75979 1.64645 3.85355C1.74021 3.94732 1.86739 4 2 4H7.47687C7.36551 5.22541 6.84535 6.37778 6 7.27187C5.47317 6.71609 5.06864 6.05607 4.8125 5.33437C4.79143 5.27141 4.75804 5.21327 4.71426 5.16335C4.67048 5.11343 4.6172 5.07273 4.55753 5.04363C4.49785 5.01452 4.43298 4.99759 4.36669 4.99383C4.3004 4.99006 4.23402 4.99954 4.17144 5.0217C4.10885 5.04386 4.0513 5.07827 4.00216 5.12291C3.95301 5.16755 3.91324 5.22154 3.88518 5.28171C3.85712 5.34189 3.84133 5.40705 3.83872 5.47339C3.83612 5.53974 3.84675 5.60593 3.87 5.66813C4.16824 6.51182 4.63813 7.28453 5.25 7.9375C4.30798 8.62974 3.16902 9.00209 2 9C1.86739 9 1.74021 9.05268 1.64645 9.14645C1.55268 9.24021 1.5 9.36739 1.5 9.5C1.5 9.63261 1.55268 9.75979 1.64645 9.85355C1.74021 9.94732 1.86739 10 2 10C3.45037 10.0016 4.85916 9.51558 6 8.62C6.93102 9.34736 8.04236 9.80776 9.215 9.95187L7.5525 13.2762C7.52312 13.335 7.50559 13.3989 7.50091 13.4644C7.49624 13.5299 7.50451 13.5957 7.52526 13.658C7.56717 13.7838 7.65734 13.8878 7.77594 13.9472C7.89454 14.0065 8.03186 14.0163 8.15768 13.9744C8.28351 13.9325 8.38753 13.8424 8.44687 13.7238L9.30875 12H13.6906L14.5525 13.7238C14.5941 13.8068 14.658 13.8767 14.737 13.9255C14.816 13.9743 14.9071 14.0001 15 14C15.0852 14 15.169 13.9781 15.2434 13.9366C15.3178 13.8951 15.3804 13.8352 15.4252 13.7627C15.4699 13.6902 15.4954 13.6074 15.4992 13.5223C15.503 13.4372 15.485 13.3525 15.4469 13.2762ZM9.80875 11L11.5 7.61812L13.1906 11H9.80875Z" fill="#64748B"/>
</svg>
