<svg width="16" height="16" viewBox="0 0 16 16" fill="none" xmlns="http://www.w3.org/2000/svg">
<path d="M13.3333 9.59995C13.4748 9.59995 13.6104 9.65614 13.7105 9.75616C13.8105 9.85618 13.8667 9.99184 13.8667 10.1333C13.8667 10.2747 13.8105 10.4104 13.7105 10.5104C13.6104 10.6104 13.4748 10.6666 13.3333 10.6666C13.1919 10.6666 13.0562 10.6104 12.9562 10.5104C12.8562 10.4104 12.8 10.2747 12.8 10.1333C12.8 9.99184 12.8562 9.85618 12.9562 9.75616C13.0562 9.65614 13.1919 9.59995 13.3333 9.59995ZM5.86667 9.59995H9.06667C9.20812 9.59995 9.34377 9.65614 9.44379 9.75616C9.54381 9.85618 9.6 9.99184 9.6 10.1333C9.6 10.2747 9.54381 10.4104 9.44379 10.5104C9.34377 10.6104 9.20812 10.6666 9.06667 10.6666H5.86667C5.72522 10.6666 5.58956 10.6104 5.48954 10.5104C5.38952 10.4104 5.33333 10.2747 5.33333 10.1333C5.33333 9.99184 5.38952 9.85618 5.48954 9.75616C5.58956 9.65614 5.72522 9.59995 5.86667 9.59995ZM4.8 6.39995C4.94145 6.39995 5.0771 6.45614 5.17712 6.55616C5.27714 6.65618 5.33333 6.79184 5.33333 6.93328V7.99995C5.33333 8.1414 5.27714 8.27706 5.17712 8.37707C5.0771 8.47709 4.94145 8.53328 4.8 8.53328C4.65855 8.53328 4.5229 8.47709 4.42288 8.37707C4.32286 8.27706 4.26667 8.1414 4.26667 7.99995V6.93328C4.26667 6.79184 4.32286 6.65618 4.42288 6.55616C4.5229 6.45614 4.65855 6.39995 4.8 6.39995ZM2.134 6.90595C2.13942 6.59958 2.23269 6.30121 2.40273 6.04631C2.57278 5.79141 2.81244 5.5907 3.09323 5.46803C3.37402 5.34536 3.68413 5.30591 3.98669 5.35435C4.28925 5.40279 4.57154 5.53709 4.8 5.74128C5.03018 5.53541 5.31502 5.40054 5.62016 5.35296C5.92529 5.30538 6.23767 5.34712 6.5196 5.47314C6.80154 5.59917 7.04098 5.80409 7.20903 6.06318C7.37708 6.32228 7.46656 6.62446 7.46667 6.93328V7.99995C7.46667 8.1414 7.41048 8.27706 7.31046 8.37707C7.21044 8.47709 7.07478 8.53328 6.93333 8.53328C6.79188 8.53328 6.65623 8.47709 6.55621 8.37707C6.45619 8.27706 6.4 8.1414 6.4 7.99995V6.93328C6.4 6.79184 6.34381 6.65618 6.24379 6.55616C6.14377 6.45614 6.00812 6.39995 5.86667 6.39995C5.72522 6.39995 5.58956 6.45614 5.48954 6.55616C5.38952 6.65618 5.33333 6.79184 5.33333 6.93328V7.99995C5.33333 8.1414 5.27714 8.27706 5.17712 8.37707C5.0771 8.47709 4.94145 8.53328 4.8 8.53328C4.65855 8.53328 4.5229 8.47709 4.42288 8.37707C4.32286 8.27706 4.26667 8.1414 4.26667 7.99995V6.93328C4.26667 6.86325 4.25287 6.79389 4.22607 6.72919C4.19927 6.66448 4.15998 6.60569 4.11046 6.55616C4.06093 6.50664 4.00214 6.46735 3.93743 6.44055C3.87272 6.41375 3.80337 6.39995 3.73333 6.39995C3.6633 6.39995 3.59394 6.41375 3.52924 6.44055C3.46453 6.46735 3.40573 6.50664 3.35621 6.55616C3.30669 6.60569 3.2674 6.66448 3.2406 6.72919C3.2138 6.79389 3.2 6.86325 3.2 6.93328V7.99995C3.2 8.1414 3.14381 8.27706 3.04379 8.37707C2.94377 8.47709 2.80812 8.53328 2.66667 8.53328C2.52522 8.53328 2.38956 8.47709 2.28954 8.37707C2.18952 8.27706 2.13333 8.1414 2.13333 7.99995V6.93328L2.134 6.90595ZM11.7333 8.53328V10.1333C11.7333 10.2747 11.6771 10.4104 11.5771 10.5104C11.4771 10.6104 11.3414 10.6666 11.2 10.6666C11.0586 10.6666 10.9229 10.6104 10.8229 10.5104C10.7229 10.4104 10.6667 10.2747 10.6667 10.1333V8.53328H9.12933C8.80067 8.53328 8.53333 8.29462 8.53333 7.99995C8.53333 7.70528 8.80067 7.46662 9.12933 7.46662H13.2707C13.5993 7.46662 13.8667 7.70528 13.8667 7.99995C13.8667 8.29462 13.5993 8.53328 13.2707 8.53328H11.7333ZM11.2 5.33328H13.3333C13.4748 5.33328 13.6104 5.38947 13.7105 5.48949C13.8105 5.58951 13.8667 5.72517 13.8667 5.86662C13.8667 6.00807 13.8105 6.14372 13.7105 6.24374C13.6104 6.34376 13.4748 6.39995 13.3333 6.39995H11.2C11.0586 6.39995 10.9229 6.34376 10.8229 6.24374C10.7229 6.14372 10.6667 6.00807 10.6667 5.86662C10.6667 5.72517 10.7229 5.58951 10.8229 5.48949C10.9229 5.38947 11.0586 5.33328 11.2 5.33328ZM2.66667 9.59995H3.73333C3.87478 9.59995 4.01044 9.65614 4.11046 9.75616C4.21048 9.85618 4.26667 9.99184 4.26667 10.1333C4.26667 10.2747 4.21048 10.4104 4.11046 10.5104C4.01044 10.6104 3.87478 10.6666 3.73333 10.6666H2.66667C2.52522 10.6666 2.38956 10.6104 2.28954 10.5104C2.18952 10.4104 2.13333 10.2747 2.13333 10.1333C2.13333 9.99184 2.18952 9.85618 2.28954 9.75616C2.38956 9.65614 2.52522 9.59995 2.66667 9.59995ZM8.8 5.33328H9.06667C9.20812 5.33328 9.34377 5.38947 9.44379 5.48949C9.54381 5.58951 9.6 5.72517 9.6 5.86662C9.6 6.00807 9.54381 6.14372 9.44379 6.24374C9.34377 6.34376 9.20812 6.39995 9.06667 6.39995H8.8C8.65855 6.39995 8.5229 6.34376 8.42288 6.24374C8.32286 6.14372 8.26667 6.00807 8.26667 5.86662C8.26667 5.72517 8.32286 5.58951 8.42288 5.48949C8.5229 5.38947 8.65855 5.33328 8.8 5.33328ZM1.06667 9.59995H0V5.86662C0 4.39462 1.19467 3.19995 2.66667 3.19995H13.3333C14.8053 3.19995 16 4.39462 16 5.86662V10.1333C16 11.6053 14.8053 12.8 13.3333 12.8H2.66667C1.19467 12.8 0 11.6053 0 10.1333V9.06662H1.06667V10.1333C1.06667 10.5576 1.23524 10.9646 1.5353 11.2647C1.83535 11.5647 2.24232 11.7333 2.66667 11.7333H13.3333C13.7577 11.7333 14.1646 11.5647 14.4647 11.2647C14.7648 10.9646 14.9333 10.5576 14.9333 10.1333V5.86662C14.9333 5.44227 14.7648 5.03531 14.4647 4.73525C14.1646 4.43519 13.7577 4.26662 13.3333 4.26662H2.66667C2.24232 4.26662 1.83535 4.43519 1.5353 4.73525C1.23524 5.03531 1.06667 5.44227 1.06667 5.86662V9.59995Z" fill="white"/>
</svg>
